# xmcd
#
# Track frame offsets: 
#        150
#        14162
#        30378
#        46106
#        62769
#        76993
#        96346
#        115460
#        130575
#        146513
#        162680
#        188440
#        206830
#
# Disc length: 3014 seconds
#
# Revision: 0
# Processed by: cddbd v1.5.2PL0 Copyright (c) Steve Scherf et al.
# Submitted via: ExactAudioCopyFreeDBPlugin 1.0
#
DISCID=b20bc40d
DTITLE=Lars Lilholt Band - En Akustisk Aften
DYEAR=2016
DGENRE=Rock
TTITLE0=I en stakåndet tid
TTITLE1=Umagen værd
TTITLE2=Jeg vil være stjerne
TTITLE3=Step Pinocchio
TTITLE4=Smukkere med tiden
TTITLE5=Singapore Annie
TTITLE6=Så ånder vi ind
TTITLE7=Den hvide dværg
TTITLE8=Lavina Jig
TTITLE9=Kald det kærlighed
TTITLE10=Battling Kid
TTITLE11=Cafe Måneskind
TTITLE12=Kære øjeblik
EXTD=
EXTT0=
EXTT1=
EXTT2=
EXTT3=
EXTT4=
EXTT5=
EXTT6=
EXTT7=
EXTT8=
EXTT9=
EXTT10=
EXTT11=
EXTT12=
PLAYORDER=
